Patient4_TMGait_0pt6_02_left_17_EMG.mot
version=1
nRows=27
nColumns=33
inDegrees=no
endheader
time	1LAddLong	2LGlutMax	3LGlutMed	4LIliopsoas	5LSemiMemb	6LBicFemLong	7LRecFem	8LVastMed	9LVastLat	10LGasMed	11LTibAnt	12lTibPost	13LPeroneusLong	14LSol	15LExtDigLong	16LFlexDigLong	17RAddLong	18RGlutMax	19RGlutMed	20RIliopsoas	21RSemiMemb	22RBicFemLong	23RRecFem	24RVastMed	25RVastLat	26RGasMed	27RTibAnt	28RTibPost	29RPeroneusLong	30RSol	31RExtDigLong	32RFlexDigLong
21.31	0.018463	0.44464	-0.1062	-0.013123	-0.045776	0.013428	0.38086	0.011292	-0.26413	-0.06012	0.074463	0.059357	-0.12253	-0.15488	0.33478	0.004883	0.050201	-0.058136	1.2611	0.011444	-0.019531	0.066986	0.37552	0.068207	0.059967	0.018463	-0.12787	0.15579	0.87189	-0.014648	-0.000763	-0.01236
21.311	0.03067	0.43076	-0.087738	-0.014648	-0.044403	-0.055084	0.31464	0.004425	-0.16357	-0.014648	0.16068	0.067749	-0.21439	-0.056763	0.10391	0.013123	0.045166	-0.16739	0.92911	-0.047607	-0.024414	0.090485	0.33752	0.05188	0.045471	0.016785	0.002594	0.33127	1.0179	0.2475	-0.001984	-0.025787
21.312	0.022888	0.4097	-0.06485	-0.017395	-0.043945	-0.077362	0.31128	0.012665	-0.13962	0.02182	0.24857	0.075378	0.001984	0.075684	0.026245	0.018616	0.034637	-0.20157	0.4216	-0.13992	-0.019073	0.083618	0.39871	0.072632	0.034332	0.039825	0.070496	0.13596	1.2495	0.34302	0	-0.024719
21.313	0.031128	0.40512	-0.20401	0.010986	-0.034027	-0.032043	0.19455	0.019836	-0.10605	0.007477	0.22705	0.075684	0.32105	0.38284	0.1622	0.03006	0.040894	-0.18738	0.12528	-0.1181	-0.02121	0.064392	0.38773	0.099335	0.048065	0.04364	0.13641	-0.11673	0.90454	-0.023041	-0.001678	-0.024567
21.314	0.032654	0.40268	-0.30853	0.006104	-0.023041	-0.031281	0.089111	0.018463	-0.030212	-0.015869	-0.086212	0.096893	0.20355	0.58014	0.50064	0.031128	0.026398	-0.16495	-0.37033	-0.008392	-0.024872	0.059509	0.37766	0.13031	0.050201	0.034943	0.075226	-0.56686	0.43411	-0.10971	-0.001221	-0.012512
21.315	0.012054	0.45349	-0.08606	-0.015564	-0.050354	-0.013123	0.13107	0.009003	-0.029449	-0.054169	-0.3891	0.096893	-0.36499	0.60623	0.53009	0.040894	-0.031891	-0.14526	-0.22781	0.040894	-0.032043	0.063934	0.38376	0.075378	0.044098	0.050507	0.12009	0.16083	-0.73624	-0.2887	0.000916	-0.000763
21.316	-0.019989	0.51071	0.12528	-0.006256	-0.11368	0.077362	0.13718	0.011902	-0.078278	-0.21423	-0.40237	0.10452	1.3081	0.81787	-0.2861	0.030518	-0.033264	-0.089264	-0.093231	0.14847	-0.048828	0.048828	0.46753	0.027618	0.018005	0.061493	0.12497	0.024414	-1.8117	0.11536	0.000458	0.011292
21.317	-0.019379	0.52963	0.10574	-0.001373	-0.23041	0.1059	0.017548	0.001373	-0.030365	-0.14862	-0.012665	0.097504	1.0902	0.71594	-0.39932	0.007019	-0.050812	-0.087433	-0.19516	0.14816	-0.052032	0.06012	0.41718	0.052338	0.023804	0.094299	0.064087	0.21957	-1.1671	0.33066	-0.000305	0.006256
21.318	-0.011139	0.53055	-0.023651	-0.003052	-0.25207	0.077209	-0.057068	-0.002289	-0.035858	0.014038	0.46478	0.090332	-0.53589	0.34225	-0.44022	-0.011749	-0.061188	-0.1088	-0.19592	0.099945	-0.043793	0.074615	0.41122	0.10391	0.024719	0.057678	0.039215	-0.77576	-0.57678	0.026703	0.000763	-0.000916
21.319	-0.005341	0.52338	-0.058289	0.007172	-0.17731	0.081787	-0.046539	0.01297	-0.031891	-0.014648	0.31021	0.074158	-0.9758	0.074615	-0.38773	-0.016632	-0.031891	-0.19089	-0.20325	0.10529	-0.044098	0.049744	0.32608	0.05249	0.046539	-0.029297	0.066223	-0.27069	-0.75165	-0.4924	0.002441	-0.023956
21.32	-0.00473	0.60898	-0.14572	0.010071	-0.079498	0.058441	-0.073547	0.023651	-0.076752	-0.027466	0.15411	0.070038	-1.4157	0.000153	0.050659	-0.007019	-0.023499	-0.17303	-0.24612	0.14206	-0.044861	0.058594	0.25131	-0.012054	0.040283	-0.073242	-0.058136	0.28259	-0.36728	-0.76965	-0.000916	-0.027313
21.321	0.021667	0.61493	-0.093689	0.003052	0.007477	-0.10559	-0.16327	0.024109	0.021973	-0.027924	0.15427	0.064087	-0.5719	-0.35767	-0.18219	-0.002594	0.019684	-0.25421	-0.23544	0.073242	-0.049591	0.045471	0.31799	-0.057373	0.038757	-0.065613	-0.078125	-0.06134	-0.066071	-1.1459	-0.00061	-0.015564
21.322	0.027161	0.61935	0.17868	-0.003357	0.052032	-0.20432	-0.14435	0.019989	0.085602	-0.080719	-0.015564	0.051422	-0.018158	-0.35523	-0.32974	0.030518	0.040894	-0.2449	-0.1886	-0.012512	-0.074768	0.033722	0.38956	-0.056915	0.028839	-0.085449	0.042877	0.36118	-0.84427	-0.15182	-0.000916	-0.017548
21.323	0.020752	0.62927	0.37766	-0.008698	-0.010223	-0.19119	-0.059967	0.010986	0.07431	-0.065155	-0.14648	0.045013	-0.038757	-0.14267	-0.32715	0.03006	0.033875	-0.27374	-0.24033	-0.025482	-0.067444	0.032806	0.42419	-0.066681	0.022583	-0.057373	0.081024	-0.004883	-0.6694	1.0757	0.001221	-0.009766
21.324	0.010681	0.58075	0.13611	0.010071	-0.09079	-0.050049	-0.04303	-0.014343	0.066681	-0.030975	-0.16388	0.035553	0.10346	-0.044403	-0.26794	0.017548	0.002747	-0.33768	-0.34744	-0.046844	-0.062866	0.065002	0.4184	-0.040131	-0.000916	-0.02594	-0.01709	0.001526	-0.36926	0.68192	-0.002747	-0.019531
21.325	0.020905	0.59662	0.11475	0.016632	-0.042572	0.054779	-0.13046	-0.019989	0.036316	0.024872	-0.18463	0.031738	0.71426	-0.089569	-0.26169	0.018463	-0.007629	-0.32394	-0.39185	-0.022736	-0.050964	0.052338	0.40344	0.022888	0.006561	-0.036621	-0.003052	0.34882	-0.12192	0.18951	0.000305	-0.018158
21.326	0.039673	0.5957	0.11505	-0.005035	0.16769	0.070038	-0.29282	-0.013885	0.017395	0.053101	-0.1416	0.016479	0.41992	-0.15991	-0.1239	0.018768	0.056152	-0.34439	-0.39398	0.053406	-0.053558	0.059357	0.345	0.034027	-0.01236	-0.033722	0.056458	0.16556	-0.24368	-0.36789	-0.001373	-0.02182
21.327	0.054321	0.58334	-0.003662	0.032349	0.13565	0.054626	-0.50384	0.006104	-0.057068	0.081329	-0.11017	0.007935	0.57861	-0.23666	0.001526	0.010986	0.091858	-0.38025	-0.38132	0.14069	-0.04837	0.056915	0.31967	0.012512	-0.013275	0.001678	0.007019	-0.006866	-0.44784	-0.64606	-0.002899	-0.0177
21.328	0.041504	0.5394	-0.053711	0.018005	0.017548	0.063019	-0.6282	0.026855	-0.15701	0.10117	-0.088654	-0.000763	1.0252	-0.242	0.21973	0.021515	0.11261	-0.42221	-0.36423	0.18265	-0.042725	0.074615	0.42129	-0.023956	0.001831	0.021362	0.026398	-0.14191	-0.35553	-0.094299	-0.001221	-0.007935
21.329	0.027161	0.48416	0.036774	0.008545	-0.044708	0.074921	-0.60959	0.020447	-0.095825	0.04303	-0.055542	-0.009308	0.98007	-0.23209	0.28976	0.017242	0.121	-0.36682	-0.33356	0.10132	-0.02594	0.085297	0.54962	0.018158	-0.013275	0.039215	-0.050049	-0.2182	0.24139	0.40619	-0.001526	-0.008545
21.33	0.009308	0.38589	-0.074005	0.040131	-0.081635	0.16434	-0.50552	0.021973	0.062866	-0.011292	-0.044861	-0.009155	-0.26154	-0.58136	0.29373	0.015411	0.15808	-0.3801	-0.32761	-0.098877	-0.002136	0.092316	0.61798	0.054626	-0.012207	0.043945	-0.11734	0.062714	0.47897	0.32135	-0.001068	-0.001678
21.331	0.013275	0.27451	-0.13687	0.011597	0.053711	0.11719	-0.48279	0.000153	0.28549	0.024261	-0.034027	-0.020599	-0.62943	-0.8461	0.23956	0.001678	0.17502	-0.40039	-0.31799	-0.18356	0.016479	0.10117	0.5307	0.038605	-0.030975	-0.003357	-0.11337	-0.057983	-0.71472	0.25101	-0.003662	-0.006714
21.332	0.010986	0.24887	-0.10849	-0.010681	0.10971	0.086975	-0.41534	-0.016632	0.34607	0.062866	-0.050964	-0.029755	-0.88562	-0.96329	0.18845	-0.002136	0.12711	-0.41641	-0.16968	-0.087128	0.024719	0.092621	0.54749	-0.024109	-0.026398	-0.046082	-0.019073	-0.30716	-0.67627	-0.04303	0.007324	-0.00412
21.333	-0.003662	0.28351	-0.089111	0.011597	0.031433	0.096436	-0.28824	-0.042725	0.30304	0.078125	-0.041199	-0.028076	-0.37537	-0.80093	0.1059	-0.013123	0.098572	-0.35553	-0.088806	-0.012054	0.032043	0.11307	0.54794	0.013428	-0.0177	-0.04303	0.017853	0.33371	0.1239	-0.49576	-0.002136	-0.009155
21.334	-0.018616	0.3273	-0.093536	-0.001831	-0.007935	0.07782	-0.2626	-0.033569	0.16541	0.10361	-0.006561	-0.024719	-0.19852	-0.59036	0.026398	-0.012512	0.047455	-0.34714	-0.027618	0.078125	0.035248	0.13931	0.4538	0.040741	-0.009613	-0.03891	0.002289	0.087128	1.0861	-0.71854	0.000305	-0.013275
21.335	-0.008087	0.35217	-0.12589	-0.001984	-0.010223	0.090179	-0.27451	-0.025635	0.089264	0.12024	0.013733	-0.038605	-0.24582	-0.47302	-0.11108	-0.020752	-0.007477	-0.32272	0.017395	0.12009	0.051727	0.13534	0.44678	0.096741	0.006409	-0.034943	-0.007172	-0.29617	1.9472	-0.14374	0.003967	-0.0177
21.336	-0.002747	0.43335	-0.16647	0.015869	-0.024719	0.15793	-0.35416	-0.015869	0.02121	0.086212	0.026855	-0.03067	-0.27206	-0.39108	-0.067291	-0.014191	-0.058289	-0.24612	0.003967	0.045624	0.035706	0.13687	0.36209	0.089569	0.006256	0.000916	0.043182	-0.3421	1.8761	0.16403	-0.002747	-0.026245
